<?xml version="1.0" encoding="utf-8"?>
<!-- Generator: Adobe Illustrator 20.0.0, SVG Export Plug-In . SVG Version: 6.00 Build 0)  -->
<svg version="1.1" id="Logo" xmlns="http://www.w3.org/2000/svg" xmlns:xlink="http://www.w3.org/1999/xlink" x="0px" y="0px"
	 viewBox="0 0 198.4 106.3" style="enable-background:new 0 0 198.4 106.3;" xml:space="preserve">
<style type="text/css">
	.st0{fill:#F04C25;}
	.st1{fill:#00A0AF;}
	.st2{fill:#FFFFFF;}
</style>
<g>
	<path class="st0" d="M7.6,0C7.6,0,0,0,0,7.3V99c0,0,0,7.3,7.6,7.3h183.2c0,0,7.6,0,7.6-7.3V7.3c0,0,0-7.3-7.6-7.3H7.6z"/>
	<path class="st1" d="M106.9,47.2c-3.6-3.5-8.4-5-13.6-5.4c-1.1-0.1-1,0.5-1,0.5v2.1c0,0.6,1,0.6,1,0.6c9,0,15.8,6.8,15.8,15.9
		c0,9.1-6.8,15.9-15.8,15.9c-8.9,0-15.8-7-15.8-15.9v0h0c0-0.7-0.3-0.7-0.8-0.7h-1.9c-0.8,0-0.7,0.9-0.7,0.9h0
		c0.1,5.2,2,10,5.6,13.5c3.6,3.5,8.4,5.4,13.6,5.4c5.2,0,10-1.9,13.6-5.4c3.6-3.6,5.6-8.4,5.6-13.7
		C112.5,55.6,110.5,50.7,106.9,47.2z"/>
	<g>
		<g>
			<path class="st2" d="M167.3,76.6h-5.8h0c-4.1,0-6.6-0.1-8.5-1.3c-2.3-1.5-4-4.5-4-7.5v-0.7V58c0-4.1,0.1-6.6,1.3-8.5
				c1.5-2.3,3.9-3.8,7.5-3.8v0h9.5c0.6,0,1.1-0.5,1.1-1.1v-1.4c0-0.6-0.5-1.1-1.1-1.1h-5.4h-4.3l0,0c0,0,0,0,0,0h0c0,0,0,0,0,0
				c-4.3,0-8.5,2.5-10.2,5.7c-1.2,2-1.6,4.6-1.6,9.8c0,0,0,0,0,0v10.1h0c0,0,0,0,0,0v0.6c0,0,0,0.1,0,0.1c0.3,4.1,2.5,8.1,5.7,9.7
				c1.9,1.1,4.3,1.5,8.7,1.6c0.1,0,0.1,0,0.2,0h6.9c0.9,0,1.2-0.4,1.2-0.9v-1.4C168.5,76.9,168,76.6,167.3,76.6z"/>
			<path class="st2" d="M167.6,58.8h-4.8h-1.8c-1.1,0-1.1,1-1.1,1v1.3c0,0.6,0.5,1,1,1h6.7c0.6,0,1-0.5,1-1v-1.3
				C168.6,59.3,168.1,58.8,167.6,58.8z"/>
		</g>
		<path class="st2" d="M68.8,42.1h-2.3c-0.4,0-0.7,0.2-0.9,0.6L49.9,74.4L34.1,42.6c-0.2-0.3-0.5-0.6-0.9-0.6h-2.3c-0.6,0-1,0.5-1,1
			v36c0,0.6,0.5,1,1,1h1.5c0.6,0,1-0.5,1-1V48.9l15.2,30.7c0.2,0.3,0.5,0.6,0.9,0.6h0.8c0.4,0,0.7-0.2,0.9-0.6l15.1-30.6v30.2
			c0,0.6,0.5,1,1,1h1.5c0.6,0,1-0.5,1-1v-36C69.8,42.5,69.3,42.1,68.8,42.1"/>
		<path class="st2" d="M139,62.1c1.7-2.2,2.6-5.2,2.5-7.9c0-4.4-2.4-8.8-5.7-10.5c-2.1-1.2-4.7-1.6-10.1-1.6h-8.2c-0.6,0-1,0.5-1,1
			v36c0,0.6,0.5,1,1,1h1.5c0.6,0,1-0.5,1-1V45.5h5.8c4.1,0,6.6,0.1,8.5,1.3c2.3,1.5,3.8,4.5,3.8,7.5c0,2.8-0.9,5-2.8,7
			c-2,2-6.1,2-8.5,2h-1c-0.4,0-0.7,0.2-0.9,0.5c-0.2,0.3-0.1,0.7,0.1,1.1l10.6,14.9c0.2,0.3,0.5,0.4,0.8,0.4h1.8
			c0.4,0,0.7-0.2,0.9-0.6c0.2-0.3,0.1-0.7-0.1-1.1l-8.6-12.1C133.7,66.2,136.6,65.4,139,62.1"/>
		<g>
			<g>
				<path class="st2" d="M53.3,36.6c-2.6,0-4.5-2.1-4.5-4.7c0-2.7,2-4.7,4.5-4.7c2.6,0,4.5,2,4.5,4.7C57.9,34.5,55.9,36.6,53.3,36.6
					 M53.3,26.2c-3.1,0-5.6,2.5-5.6,5.7c0,3.2,2.4,5.7,5.6,5.7c3.1,0,5.6-2.5,5.6-5.7C58.9,28.7,56.5,26.2,53.3,26.2"/>
				<path class="st2" d="M53.3,37.7c-3.2,0-5.7-2.6-5.7-5.9c0-3.3,2.5-5.9,5.7-5.9c3.2,0,5.7,2.6,5.7,5.9
					C59.1,35.1,56.6,37.7,53.3,37.7z M53.3,26.3c-3,0-5.4,2.4-5.4,5.6s2.4,5.6,5.4,5.6c3,0,5.4-2.4,5.4-5.6S56.4,26.3,53.3,26.3z
					 M53.3,36.7c-2.6,0-4.7-2.1-4.7-4.9c0-2.8,2-4.9,4.7-4.9c2.7,0,4.7,2.1,4.7,4.9C58,34.6,56,36.7,53.3,36.7z M53.3,27.3
					c-2.5,0-4.4,2-4.4,4.6c0,2.6,1.9,4.6,4.4,4.6c2.5,0,4.4-2,4.4-4.6C57.7,29.3,55.9,27.3,53.3,27.3z"/>
			</g>
			<g>
				<path class="st2" d="M36.1,26.3h-5.9c-0.2,0-0.3,0.1-0.3,0.3V27c0,0.2,0.1,0.3,0.3,0.3h2.4v9.7c0,0.2,0.1,0.3,0.3,0.3h0.4
					c0.2,0,0.3-0.1,0.3-0.3v-9.7h2.4c0.2,0,0.3-0.1,0.3-0.3v-0.4C36.4,26.5,36.2,26.3,36.1,26.3"/>
				<path class="st2" d="M33.3,37.5h-0.4c-0.3,0-0.5-0.2-0.5-0.5v-9.6h-2.3c-0.3,0-0.5-0.2-0.5-0.5v-0.4c0-0.3,0.2-0.5,0.5-0.5h5.9
					c0.3,0,0.5,0.2,0.5,0.5V27c0,0.3-0.2,0.5-0.5,0.5h-2.3v9.6C33.8,37.3,33.6,37.5,33.3,37.5z M30.1,26.5c-0.1,0-0.2,0.1-0.2,0.2
					V27c0,0.1,0.1,0.2,0.2,0.2h2.6v9.9c0,0.1,0.1,0.2,0.2,0.2h0.4c0.1,0,0.2-0.1,0.2-0.2v-9.9h2.6c0.1,0,0.2-0.1,0.2-0.2v-0.4
					c0-0.1-0.1-0.2-0.2-0.2H30.1z"/>
			</g>
			<g>
				<path class="st2" d="M45.1,26.3h-0.4c-0.2,0-0.3,0.1-0.3,0.3v4.7h-5.1v-4.7c0-0.2-0.1-0.3-0.3-0.3h-0.4c-0.2,0-0.3,0.1-0.3,0.3
					v10.4c0,0.2,0.1,0.3,0.3,0.3H39c0.2,0,0.3-0.1,0.3-0.3v-4.8h5.1v4.8c0,0.2,0.1,0.3,0.3,0.3h0.4c0.2,0,0.3-0.1,0.3-0.3V26.6
					C45.4,26.5,45.3,26.3,45.1,26.3"/>
				<path class="st2" d="M45.1,37.5h-0.4c-0.3,0-0.5-0.2-0.5-0.5v-4.6h-4.8v4.6c0,0.3-0.2,0.5-0.5,0.5h-0.4c-0.3,0-0.5-0.2-0.5-0.5
					V26.6c0-0.3,0.2-0.5,0.5-0.5H39c0.3,0,0.5,0.2,0.5,0.5v4.5h4.8v-4.5c0-0.3,0.2-0.5,0.5-0.5h0.4c0.3,0,0.5,0.2,0.5,0.5v10.4
					C45.5,37.3,45.3,37.5,45.1,37.5z M39.2,32.2h5.4v4.9c0,0.1,0.1,0.2,0.2,0.2h0.4c0.1,0,0.2-0.1,0.2-0.2V26.6
					c0-0.1-0.1-0.2-0.2-0.2h-0.4c-0.1,0-0.2,0.1-0.2,0.2v4.8h-5.4v-4.8c0-0.1-0.1-0.2-0.2-0.2h-0.4c-0.1,0-0.2,0.1-0.2,0.2v10.4
					c0,0.1,0.1,0.2,0.2,0.2H39c0.1,0,0.2-0.1,0.2-0.2V32.2z"/>
			</g>
			<g>
				<g>
					<path class="st2" d="M89.7,31.3l-0.1,0c-1.5-0.4-2.5-0.8-2.5-2.1c0-1.1,0.8-2,2-2c1.1,0,1.7,0.6,1.9,1.8c0,0.1,0.2,0.3,0.3,0.3
						h0.4c0.1,0,0.2,0,0.2-0.1c0.1-0.1,0.1-0.2,0.1-0.2c-0.3-2-1.7-2.7-2.9-2.7c-0.9,0-1.7,0.3-2.3,0.9c-0.5,0.6-0.8,1.3-0.8,2.1
						c0,2.2,1.9,2.7,2.9,2.9l0.1,0c1,0.3,2.3,0.6,2.3,2.3c0,1.3-1.2,2.2-2.2,2.2c-0.3,0-2-0.1-2.2-2.2c0-0.2-0.2-0.3-0.3-0.3h-0.4
						c-0.1,0-0.2,0-0.2,0.1c-0.1,0.1-0.1,0.1-0.1,0.2c0.1,2,1.7,3.1,3.2,3.1c1.6,0,3.3-1.2,3.3-3.2C92.3,32,90.4,31.5,89.7,31.3"/>
				</g>
				<g>
					<path class="st2" d="M89.1,37.7c-1.6,0-3.2-1.1-3.4-3.2c0-0.1,0-0.2,0.1-0.3C85.9,34,86,34,86.1,34h0.4c0.2,0,0.4,0.2,0.5,0.4
						c0.2,1.9,1.8,2,2.1,2c1,0,2.1-0.8,2.1-2c0-1.5-1.2-1.9-2.2-2.1l-0.1,0c-1-0.2-3-0.8-3-3.1c0-0.9,0.3-1.6,0.8-2.2
						c0.6-0.6,1.5-1,2.4-1c1.3,0,2.8,0.7,3.1,2.8c0,0.1,0,0.3-0.1,0.4c-0.1,0.1-0.2,0.2-0.3,0.2h-0.4c-0.2,0-0.4-0.2-0.4-0.4
						c-0.2-1.1-0.8-1.7-1.8-1.7c-1.1,0-1.9,0.8-1.9,1.8c0,1.3,0.9,1.6,2.4,2l0.1,0c0.7,0.2,2.8,0.7,2.8,3.2
						C92.5,36.4,90.7,37.7,89.1,37.7z M86.1,34.3c0,0-0.1,0-0.1,0.1c0,0,0,0.1,0,0.1c0.1,2,1.7,3,3.1,3c1.5,0,3.1-1.2,3.1-3.1
						c0-2.2-1.9-2.8-2.5-2.9l-0.1,0c-1.5-0.4-2.6-0.8-2.6-2.3c0-1.2,0.9-2.1,2.2-2.1c1.1,0,1.8,0.6,2.1,1.9c0,0.1,0.1,0.1,0.2,0.1
						h0.4c0,0,0.1,0,0.1-0.1c0,0,0-0.1,0-0.1c-0.2-1.9-1.6-2.6-2.8-2.6c-0.8,0-1.6,0.3-2.2,0.9c-0.5,0.5-0.8,1.2-0.8,2
						c0,2.1,1.8,2.5,2.8,2.8l0.1,0c1,0.3,2.4,0.7,2.4,2.4c0,1.4-1.2,2.3-2.4,2.3c-0.3,0-2.1-0.1-2.4-2.3c0-0.1-0.1-0.1-0.2-0.1H86.1
						z"/>
				</g>
			</g>
			<g>
				<path class="st2" d="M72.3,26.3h-0.6c-0.1,0-0.2,0.1-0.3,0.2L67,35.7l-4.4-9.2c-0.1-0.1-0.2-0.2-0.3-0.2h-0.7
					c-0.2,0-0.3,0.1-0.3,0.3v10.4c0,0.2,0.1,0.3,0.3,0.3H62c0.2,0,0.3-0.1,0.3-0.3v-8.7l4.2,8.8c0.1,0.1,0.2,0.2,0.3,0.2h0.2
					c0.1,0,0.2-0.1,0.3-0.2l4.2-8.8v8.7c0,0.2,0.1,0.3,0.3,0.3h0.4c0.2,0,0.3-0.1,0.3-0.3V26.6C72.6,26.5,72.5,26.3,72.3,26.3"/>
				<path class="st2" d="M72.3,37.5h-0.4c-0.3,0-0.5-0.2-0.5-0.5v-8l-3.9,8.2c-0.1,0.2-0.2,0.3-0.4,0.3h-0.2c-0.2,0-0.3-0.1-0.4-0.3
					l-3.9-8.2v8c0,0.3-0.2,0.5-0.5,0.5h-0.4c-0.3,0-0.5-0.2-0.5-0.5V26.6c0-0.3,0.2-0.5,0.5-0.5h0.7c0.2,0,0.3,0.1,0.4,0.3l4.3,8.9
					l4.3-8.9c0.1-0.2,0.2-0.3,0.4-0.3h0.6c0.3,0,0.5,0.2,0.5,0.5v10.4C72.7,37.3,72.5,37.5,72.3,37.5z M71.7,27.8v9.3
					c0,0.1,0.1,0.2,0.2,0.2h0.4c0.1,0,0.2-0.1,0.2-0.2V26.6c0-0.1-0.1-0.2-0.2-0.2h-0.6c-0.1,0-0.1,0-0.1,0.1L67,36l-4.5-9.5
					c0-0.1-0.1-0.1-0.1-0.1h-0.7c-0.1,0-0.2,0.1-0.2,0.2v10.4c0,0.1,0.1,0.2,0.2,0.2H62c0.1,0,0.2-0.1,0.2-0.2v-9.3l4.5,9.4
					c0,0.1,0.1,0.1,0.1,0.1h0.2c0.1,0,0.1,0,0.1-0.1L71.7,27.8z"/>
			</g>
			<g>
				<g>
					<path class="st2" d="M77.4,32.8l2-4.9l2,4.9H77.4z M80,26.5c0-0.1-0.2-0.2-0.3-0.2h-0.5c-0.1,0-0.2,0.1-0.3,0.2L74.5,37
						c0,0.1,0,0.2,0,0.3c0.1,0.1,0.2,0.1,0.3,0.1h0.4c0.1,0,0.2-0.1,0.3-0.2l1.4-3.4h4.9l1.4,3.4c0,0.1,0.2,0.2,0.3,0.2h0.4
						c0.1,0,0.2-0.1,0.3-0.1c0.1-0.1,0.1-0.2,0-0.3L80,26.5z"/>
				</g>
				<g>
					<path class="st2" d="M84.1,37.5h-0.4c-0.2,0-0.3-0.1-0.4-0.3l-1.4-3.4h-4.7l-1.4,3.4c-0.1,0.2-0.2,0.3-0.4,0.3h-0.4
						c-0.2,0-0.3-0.1-0.4-0.2c-0.1-0.1-0.1-0.3,0-0.4l4.3-10.4c0.1-0.2,0.2-0.3,0.4-0.3h0.5c0.2,0,0.4,0.1,0.4,0.3l4.3,10.4
						c0.1,0.1,0,0.3,0,0.4C84.4,37.5,84.2,37.5,84.1,37.5z M76.9,33.6H82l1.5,3.5c0,0.1,0.1,0.1,0.1,0.1h0.4c0.1,0,0.1,0,0.1-0.1
						c0,0,0-0.1,0-0.1l-4.3-10.4c0-0.1-0.1-0.1-0.1-0.1h-0.5c-0.1,0-0.1,0-0.1,0.1L74.7,37c0,0,0,0.1,0,0.1c0,0,0.1,0.1,0.1,0.1h0.4
						c0.1,0,0.1,0,0.1-0.1L76.9,33.6z M81.7,32.9h-4.5l2.2-5.4L81.7,32.9z M77.6,32.6h3.6l-1.8-4.4L77.6,32.6z"/>
				</g>
			</g>
		</g>
	</g>
</g>
</svg>
